# xmcd
#
# Track frame offsets: 
#        150
#        7897
#        28475
#        38381
#        49892
#        60147
#        70684
#        81000
#        93022
#        104705
#        114345
#        126224
#        138101
#        148160
#        161497
#        173198
#        186531
#        199556
#        211363
#        223663
#        237783
#        248978
#        263494
#        276933
#
# Disc length: 3852 seconds
#
# Revision: 6
# Processed by: cddbd v1.5PL3 Copyright (c) Steve Scherf et al.
# Submitted via: ExactAudioCopy v0.90b4
#
DISCID=4f0f0a18
DTITLE=Conway Twitty - The Conway Twitty Collection - Disc 1
DYEAR=1994
DGENRE=Country
TTITLE0=Cry Baby Heart
TTITLE1=Maybellene
TTITLE2=Rock House
TTITLE3=I Need Your Lovin'
TTITLE4=It's Only Make Believe
TTITLE5=The Story Of My Love
TTITLE6=Lonely Blue Boy
TTITLE7=What Am I Living For
TTITLE8=Unchained Melody
TTITLE9=The Next Kiss (Is The Last Goodbye)
TTITLE10=Such A Night
TTITLE11=Walk Me To The Door
TTITLE12=Funny (But I'm Not Laughing)
TTITLE13=Together Forever
TTITLE14=Guess My Eyes Were Bigger Than My Heart
TTITLE15=The Image Of Me
TTITLE16=Next In Line
TTITLE17=Darling, You Know I Wouldn't Lie
TTITLE18=To See My Angel Cry
TTITLE19=That's When She Started To Stop Loving You
TTITLE20=Hello Darlin'
TTITLE21=Fifteen Years Ago
TTITLE22=How Much More Can She Stand
TTITLE23=After The Fire Is Gone (With Loretta Lynn)
EXTD=
EXTT0=
EXTT1=
EXTT2=
EXTT3=
EXTT4=
EXTT5=
EXTT6=
EXTT7=
EXTT8=
EXTT9=
EXTT10=
EXTT11=
EXTT12=
EXTT13=
EXTT14=
EXTT15=
EXTT16=
EXTT17=
EXTT18=
EXTT19=
EXTT20=
EXTT21=
EXTT22=
EXTT23=
PLAYORDER=
